<svg viewBox="0 0 330 200" xmlns="http://www.w3.org/2000/svg"><g><g><g><g><g><line x1="60" y1="178" x2="55" y2="178" style="visibility: inherit;" fill="rgb(0, 0, 0)" stroke="rgb(204, 204, 204)" stroke-width="1px"></line><line x1="60" y1="163.16666666666666" x2="55" y2="163.16666666666666" style="visibility: inherit;" fill="rgb(0, 0, 0)" stroke="rgb(204, 204, 204)" stroke-width="1px"></line><line x1="60" y1="148.33333333333334" x2="55" y2="148.33333333333334" style="visibility: inherit;" fill="rgb(0, 0, 0)" stroke="rgb(204, 204, 204)" stroke-width="1px"></line><line x1="60" y1="133.5" x2="55" y2="133.5" style="visibility: inherit;" fill="rgb(0, 0, 0)" stroke="rgb(204, 204, 204)" stroke-width="1px"></line><line x1="60" y1="118.66666666666667" x2="55" y2="118.66666666666667" style="visibility: inherit;" fill="rgb(0, 0, 0)" stroke="rgb(204, 204, 204)" stroke-width="1px"></line><line x1="60" y1="103.83333333333333" x2="55" y2="103.83333333333333" style="visibility: inherit;" fill="rgb(0, 0, 0)" stroke="rgb(204, 204, 204)" stroke-width="1px"></line><line x1="60" y1="89" x2="55" y2="89" style="visibility: inherit;" fill="rgb(0, 0, 0)" stroke="rgb(204, 204, 204)" stroke-width="1px"></line><line x1="60" y1="74.16666666666666" x2="55" y2="74.16666666666666" style="visibility: inherit;" fill="rgb(0, 0, 0)" stroke="rgb(204, 204, 204)" stroke-width="1px"></line><line x1="60" y1="59.33333333333334" x2="55" y2="59.33333333333334" style="visibility: inherit;" fill="rgb(0, 0, 0)" stroke="rgb(204, 204, 204)" stroke-width="1px"></line><line x1="60" y1="44.5" x2="55" y2="44.5" style="visibility: inherit;" fill="rgb(0, 0, 0)" stroke="rgb(204, 204, 204)" stroke-width="1px"></line><line x1="60" y1="29.666666666666657" x2="55" y2="29.666666666666657" style="visibility: inherit;" fill="rgb(0, 0, 0)" stroke="rgb(204, 204, 204)" stroke-width="1px"></line><line x1="60" y1="14.833333333333343" x2="55" y2="14.833333333333343" style="visibility: inherit;" fill="rgb(0, 0, 0)" stroke="rgb(204, 204, 204)" stroke-width="1px"></line><line x1="60" y1="0" x2="55" y2="0" style="visibility: inherit;" fill="rgb(0, 0, 0)" stroke="rgb(204, 204, 204)" stroke-width="1px"></line></g><g transform="translate(50, 0)"><text x="0" y="178" dx="0em" dy="0.3em" style="text-anchor: end; visibility: hidden; font-family: &quot;Helvetica Neue&quot;, sans-serif; font-size: 12px; font-weight: 200;" fill="rgb(50, 49, 63)" stroke="none" stroke-width="1px">0.242</text><text x="0" y="163.16666666666666" dx="0em" dy="0.3em" style="text-anchor: end; visibility: inherit; font-family: &quot;Helvetica Neue&quot;, sans-serif; font-size: 12px; font-weight: 200;" fill="rgb(50, 49, 63)" stroke="none" stroke-width="1px">0.244</text><text x="0" y="148.33333333333334" dx="0em" dy="0.3em" style="text-anchor: end; visibility: hidden; font-family: &quot;Helvetica Neue&quot;, sans-serif; font-size: 12px; font-weight: 200;" fill="rgb(50, 49, 63)" stroke="none" stroke-width="1px">0.246</text><text x="0" y="133.5" dx="0em" dy="0.3em" style="text-anchor: end; visibility: inherit; font-family: &quot;Helvetica Neue&quot;, sans-serif; font-size: 12px; font-weight: 200;" fill="rgb(50, 49, 63)" stroke="none" stroke-width="1px">0.248</text><text x="0" y="118.66666666666667" dx="0em" dy="0.3em" style="text-anchor: end; visibility: hidden; font-family: &quot;Helvetica Neue&quot;, sans-serif; font-size: 12px; font-weight: 200;" fill="rgb(50, 49, 63)" stroke="none" stroke-width="1px">0.25</text><text x="0" y="103.83333333333333" dx="0em" dy="0.3em" style="text-anchor: end; visibility: inherit; font-family: &quot;Helvetica Neue&quot;, sans-serif; font-size: 12px; font-weight: 200;" fill="rgb(50, 49, 63)" stroke="none" stroke-width="1px">0.252</text><text x="0" y="89" dx="0em" dy="0.3em" style="text-anchor: end; visibility: hidden; font-family: &quot;Helvetica Neue&quot;, sans-serif; font-size: 12px; font-weight: 200;" fill="rgb(50, 49, 63)" stroke="none" stroke-width="1px">0.254</text><text x="0" y="74.16666666666666" dx="0em" dy="0.3em" style="text-anchor: end; visibility: inherit; font-family: &quot;Helvetica Neue&quot;, sans-serif; font-size: 12px; font-weight: 200;" fill="rgb(50, 49, 63)" stroke="none" stroke-width="1px">0.256</text><text x="0" y="59.33333333333334" dx="0em" dy="0.3em" style="text-anchor: end; visibility: hidden; font-family: &quot;Helvetica Neue&quot;, sans-serif; font-size: 12px; font-weight: 200;" fill="rgb(50, 49, 63)" stroke="none" stroke-width="1px">0.258</text><text x="0" y="44.5" dx="0em" dy="0.3em" style="text-anchor: end; visibility: inherit; font-family: &quot;Helvetica Neue&quot;, sans-serif; font-size: 12px; font-weight: 200;" fill="rgb(50, 49, 63)" stroke="none" stroke-width="1px">0.26</text><text x="0" y="29.666666666666657" dx="0em" dy="0.3em" style="text-anchor: end; visibility: hidden; font-family: &quot;Helvetica Neue&quot;, sans-serif; font-size: 12px; font-weight: 200;" fill="rgb(50, 49, 63)" stroke="none" stroke-width="1px">0.262</text><text x="0" y="14.833333333333343" dx="0em" dy="0.3em" style="text-anchor: end; visibility: inherit; font-family: &quot;Helvetica Neue&quot;, sans-serif; font-size: 12px; font-weight: 200;" fill="rgb(50, 49, 63)" stroke="none" stroke-width="1px">0.264</text><text x="0" y="0" dx="0em" dy="0.3em" style="text-anchor: end; visibility: hidden; font-family: &quot;Helvetica Neue&quot;, sans-serif; font-size: 12px; font-weight: 200;" fill="rgb(50, 49, 63)" stroke="none" stroke-width="1px">0.266</text></g><line x1="60" y1="0" x2="60" y2="178" fill="rgb(0, 0, 0)" stroke="rgb(204, 204, 204)" stroke-width="1px"></line></g></g><g transform="translate(60, 0)" clip-path="url(#clip_0)"><clipPath id="clip_0"><rect width="270" height="178"></rect></clipPath><g><g><g><line x1="0" y1="0" x2="0" y2="178" fill="rgb(0, 0, 0)" stroke="rgb(60, 60, 60)" stroke-width="1px" opacity="0.25"></line><line x1="22.5" y1="0" x2="22.5" y2="178" fill="rgb(0, 0, 0)" stroke="rgb(60, 60, 60)" stroke-width="1px" opacity="0.25"></line><line x1="45" y1="0" x2="45" y2="178" fill="rgb(0, 0, 0)" stroke="rgb(60, 60, 60)" stroke-width="1px" opacity="0.25"></line><line x1="67.5" y1="0" x2="67.5" y2="178" fill="rgb(0, 0, 0)" stroke="rgb(60, 60, 60)" stroke-width="1px" opacity="0.25"></line><line x1="90" y1="0" x2="90" y2="178" fill="rgb(0, 0, 0)" stroke="rgb(60, 60, 60)" stroke-width="1px" opacity="0.25"></line><line x1="112.5" y1="0" x2="112.5" y2="178" fill="rgb(0, 0, 0)" stroke="rgb(60, 60, 60)" stroke-width="1px" opacity="0.25"></line><line x1="135" y1="0" x2="135" y2="178" fill="rgb(0, 0, 0)" stroke="rgb(60, 60, 60)" stroke-width="1px" opacity="0.25"></line><line x1="157.5" y1="0" x2="157.5" y2="178" fill="rgb(0, 0, 0)" stroke="rgb(60, 60, 60)" stroke-width="1px" opacity="0.25"></line><line x1="180" y1="0" x2="180" y2="178" fill="rgb(0, 0, 0)" stroke="rgb(60, 60, 60)" stroke-width="1px" opacity="0.25"></line><line x1="202.5" y1="0" x2="202.5" y2="178" fill="rgb(0, 0, 0)" stroke="rgb(60, 60, 60)" stroke-width="1px" opacity="0.25"></line><line x1="225" y1="0" x2="225" y2="178" fill="rgb(0, 0, 0)" stroke="rgb(60, 60, 60)" stroke-width="1px" opacity="0.25"></line><line x1="247.5" y1="0" x2="247.5" y2="178" fill="rgb(0, 0, 0)" stroke="rgb(60, 60, 60)" stroke-width="1px" opacity="0.25"></line><line x1="270" y1="0" x2="270" y2="178" fill="rgb(0, 0, 0)" stroke="rgb(60, 60, 60)" stroke-width="1px" opacity="0.25"></line></g><g><line x1="0" y1="178" x2="270" y2="178" fill="rgb(0, 0, 0)" stroke="rgb(60, 60, 60)" stroke-width="1px" opacity="0.25"></line><line x1="0" y1="163.16666666666666" x2="270" y2="163.16666666666666" fill="rgb(0, 0, 0)" stroke="rgb(60, 60, 60)" stroke-width="1px" opacity="0.25"></line><line x1="0" y1="148.33333333333334" x2="270" y2="148.33333333333334" fill="rgb(0, 0, 0)" stroke="rgb(60, 60, 60)" stroke-width="1px" opacity="0.25"></line><line x1="0" y1="133.5" x2="270" y2="133.5" fill="rgb(0, 0, 0)" stroke="rgb(60, 60, 60)" stroke-width="1px" opacity="0.25"></line><line x1="0" y1="118.66666666666667" x2="270" y2="118.66666666666667" fill="rgb(0, 0, 0)" stroke="rgb(60, 60, 60)" stroke-width="1px" opacity="0.25"></line><line x1="0" y1="103.83333333333333" x2="270" y2="103.83333333333333" fill="rgb(0, 0, 0)" stroke="rgb(60, 60, 60)" stroke-width="1px" opacity="0.25"></line><line x1="0" y1="89" x2="270" y2="89" fill="rgb(0, 0, 0)" stroke="rgb(60, 60, 60)" stroke-width="1px" opacity="0.25"></line><line x1="0" y1="74.16666666666666" x2="270" y2="74.16666666666666" fill="rgb(0, 0, 0)" stroke="rgb(60, 60, 60)" stroke-width="1px" opacity="0.25"></line><line x1="0" y1="59.33333333333334" x2="270" y2="59.33333333333334" fill="rgb(0, 0, 0)" stroke="rgb(60, 60, 60)" stroke-width="1px" opacity="0.25"></line><line x1="0" y1="44.5" x2="270" y2="44.5" fill="rgb(0, 0, 0)" stroke="rgb(60, 60, 60)" stroke-width="1px" opacity="0.25"></line><line x1="0" y1="29.666666666666657" x2="270" y2="29.666666666666657" fill="rgb(0, 0, 0)" stroke="rgb(60, 60, 60)" stroke-width="1px" opacity="0.25"></line><line x1="0" y1="14.833333333333343" x2="270" y2="14.833333333333343" fill="rgb(0, 0, 0)" stroke="rgb(60, 60, 60)" stroke-width="1px" opacity="0.25"></line><line x1="0" y1="0" x2="270" y2="0" fill="rgb(0, 0, 0)" stroke="rgb(60, 60, 60)" stroke-width="1px" opacity="0.25"></line></g></g></g><g><g><line x1="0" y1="1972.8333333333314" x2="270" y2="1972.8333333333314" fill="rgb(0, 0, 0)" stroke="rgb(153, 153, 153)" stroke-width="1.5px"></line></g></g><g><g><line x1="22.5" y1="0" x2="22.5" y2="178" fill="rgb(0, 0, 0)" stroke="rgb(153, 153, 153)" stroke-width="1.5px"></line></g></g><g><g><g><g><g><path stroke="rgb(238, 51, 119)" stroke-width="2px" d="M34.56,-0.6224000175643027L35.167500000000004,5.813644475419778L35.3925,11.030650990126276L35.527499999999996,14.456863485285709L35.684999999999995,17.408750790050362L35.7075,19.253443251733188L36.45,24.63965168648153L36.495,28.25889336503377L36.765,32.02842499082462L36.9225,34.845999995474955L36.945,36.792590657640204L36.99,38.38687522397825L37.057500000000005,39.58207415254864L37.1025,40.390436299912466L37.372499999999995,41.753488617106115L37.597500000000004,43.488345414577765L38.565000000000005,47.739909380781484L38.745,50.83927705095722L38.925,54.01157372518274L39.1275,56.32147726212321L39.419999999999995,58.848396329846196L39.510000000000005,60.5620636555155L39.712500000000006,62.169638086116336L39.8025,63.779159638537266L39.847500000000004,64.71101017788236L39.8925,65.40008842942238L40.050000000000004,66.4670883893792L40.1625,67.42062600929485L40.2075,68.25993434873541L40.32,69.16491689853282L40.364999999999995,69.81718558414212L40.455000000000005,70.52029299543337L40.545,71.35619812690854L40.68,72.05676012128784L40.7025,72.51078288291032L41.22,74.08261057854187L41.31,75.2470947411886L42.0525,77.6990260625223L42.21,79.60889292226284L42.345,81.08194319684941L42.660000000000004,82.99552605318792L42.75,84.309893253055L42.907500000000006,85.65100988702352L42.9525,86.48653619859434L43.1325,87.75934867883018L43.447500000000005,88.78341409061949L43.47,89.26187328792366L43.695,89.45611457206874L43.762499999999996,89.50502297189675L43.964999999999996,89.58255340004091L44.145,89.98378684527154L44.347500000000004,91.2047680124033L44.37,92.11453747974161L44.505,92.13168609277204L44.527499999999996,92.1364936200923L44.64,92.46120348184193L45.045,93.88099922304691L45.1125,94.87796331384973L45.315,96.11899673703837L45.99,97.23636834480514L46.2825,98.50932969644573L46.4175,99.52181384163048L46.485,100.55015285728543L46.53,101.33637981366012L46.62,102.06345433841682L46.755,102.85529837717924L46.8675,103.50007041520068L47.0925,104.01504488126136L47.2275,104.51376505296828L47.34,104.94040109078918L47.565,105.90484054104992L48.51,106.09687172899532L48.6,106.42799634653281L48.6225,106.69563369105992L48.645,106.90325210979019L49.050000000000004,107.73955229018392L49.3425,107.98855804062451L49.635,108.11249838664058L50.22,109.41333544886456L50.49,111.25939786813449L50.737500000000004,112.15059893358797L50.805,112.81626004991355L50.8725,113.23687597324901L51.3225,113.28757420506327L51.457499999999996,113.32444733377048L51.615,113.64187248942702L51.75,113.64480242966101L52.11,114.10604564649942L52.1775,114.46872955343963L52.425,114.75097020734438L52.4925,115.28059984208588L52.559999999999995,115.91330671088787L52.5825,116.32290302779428L53.6625,116.63806545972525L53.730000000000004,117.0288342410703L53.7975,117.46903385565969L53.82,117.65579176254846L54.315,118.95254395588908L54.585,119.5098708282988L54.81,119.67694429622568L54.9,120.30223228176334L55.4625,120.47316975776297L55.485,120.57635113825756L55.7325,121.10318265297224L55.9125,121.62524094147423L56.0025,121.79604167518765L56.0475,121.87849644488739L56.7675,122.68837009867016L56.8575,123.29767540891939L57.42,123.94609356204661L57.78,124.51984037327753L57.802499999999995,124.77585173071208L58.13999999999999,124.91615230493225L58.230000000000004,125.29041752806785L58.589999999999996,125.37077415143327L58.6125,125.31527902377579L59.1075,126.2588633320307L59.22,126.38197358577906L59.3325,126.63571711855803L59.4,127.15381853467818L59.5125,127.15549717756079L59.580000000000005,127.21529937830762L59.85,127.00503735769115L60.03,127.13695931650182L60.1875,127.21827862392064L60.345,127.03259745675426L60.5475,126.97074455482623L60.637499999999996,126.90025669612209L60.682500000000005,126.71782849397881L60.7275,126.57119367221961L60.794999999999995,126.33131828924002L60.9525,126.21055741123351L61.155,126.3912731032292L61.38,126.61570110444538L61.47,127.2082959206362L61.515,127.62048169323569L61.5825,127.8240284463688L61.695,128.270722663855L61.7625,128.45160763449786L61.785,128.5222092011809L62.235,128.6387933218026L62.4375,129.46158522706483L62.572500000000005,129.9792204440113L62.730000000000004,130.63576382043823L62.7525,131.2440927206053L62.955,131.4485752490307L63.112500000000004,131.30956063909215L63.584999999999994,131.47149949218564L63.675000000000004,131.7616695976996L63.9,131.9632682770536L63.989999999999995,132.24606849968714L64.1925,132.45279391340594L64.485,132.63235287506689L64.55250000000001,132.65949929538962L64.6875,132.9175098108268L64.7325,133.07107833029926L65.4975,133.47584977747258L65.63250000000001,133.66836112539715L66.015,133.9705531585259L66.24,134.34549406695604L66.30749999999999,134.76028251764131L66.35249999999999,135.22612245549922L66.7575,135.07629018825395L67.0725,134.80196014922115L67.11749999999999,134.6388651562606L67.5225,134.32978817420462L67.6125,134.23770670054694L67.7925,134.64229672327644L68.175,134.48369739756004L68.31,134.1928786017796L68.85,134.24768788287852L69.1425,134.21594314179697L69.21000000000001,134.41700184584775L69.2325,134.45863955561978L69.2775,134.60961149937697L69.32249999999999,134.6737590122627L69.4125,134.7024336152318L69.5025,134.53856741347167L69.66,134.28375569755784L69.99749999999999,134.70670616095222L70.7625,134.7858596650659L70.8525,134.74095960107854L71.01,134.7525678732836L71.21249999999999,134.94078062726126L71.4825,135.31793219299948L71.7075,135.23402416975392L71.7525,135.19610146048313L71.7975,135.04815423903437L71.91,135.052839035298L71.9775,134.88633795251798L72.1575,134.94872038565296L72.2475,135.00957943798448L72.69749999999999,134.3505454210521L72.81,134.50505733180526L72.8325,134.6717224181997L72.87750000000001,134.55524087714997L72.945,134.3838531897536L73.03500000000001,134.09972857988322L73.0575,134.06253725025903L73.215,134.41178042332646L73.2825,134.83236948633373L73.395,135.38501956850791L73.82249999999999,135.19081419780153L74.0475,135.35522505089216L74.1825,135.79554575151948L74.3175,135.92030999342649L74.4075,135.84234570630406L74.67750000000001,135.96412757933956L74.7,136.10160597901043L75.2625,136.26180853490325L75.465,136.36778817997956L76.2525,136.68923410431495L76.27499999999999,136.9247169931091L76.32000000000001,136.88290225104623L77.31,137.7556972779998L77.49,138.06819851467012L77.64750000000001,138.33195594908193L77.6925,138.5226139781559L77.7375,138.60389791872225L77.85,138.43145756490688L78.4125,138.135030765738L78.43499999999999,138.12268486384886L78.66,137.98137499152213L78.705,138.06621047611202L78.8175,137.80364150258987L79.1325,137.38665053717162L79.2675,137.4898891496969L79.47,137.61221877624462L79.80749999999999,138.16013210946244L79.8975,138.35122020205196L79.9425,138.4940327753246L80.50500000000001,138.98770467537355L80.775,139.0180482512576L81,138.8496575859703L81.13499999999999,138.88345386033345L81.5175,138.6103312379823L81.6525,138.28028438528605L81.675,138.16222633544743L81.99,137.9324239311068L82.125,137.95116710369462L82.2375,138.33078809005818L82.755,138.25901555273617L82.9125,138.23703866354816L83.025,138.51407002897378L83.3175,138.19441214894056L83.475,138.35300034500045L83.8125,139.34696547716982L84.0825,139.34239761350622L84.14999999999999,139.27776740581623L84.465,139.49923458451536L85.2525,139.40573198052948L85.275,139.3090928025207L85.2975,139.13214885555675L85.7025,139.72586419997396L86.03999999999999,139.52407124529964L87.12,139.83812279040038L87.3225,140.2533344896698L87.52499999999999,140.5361912810046L87.66,140.8151845115366L88.13250000000001,141.26634375917558L88.1775,141.65312630733433L88.2,141.9517712442115L89.25750000000001,141.83079418230278L89.4375,141.97504219226983L89.955,141.91164160656695L90.1575,141.63926112386238L90.2475,141.4281337205527L90.3375,141.31812323395172L90.6075,141.75846137959024L90.675,141.87545569553933L90.855,141.99834676473313L90.9225,142.14687927497795L91.4625,141.41653773347562L91.55250000000001,141.26218453145032L91.5975,141.32597619153657L92.2275,142.01020063076984L92.745,142.0783095903072L93.0825,141.7502694018806L93.26249999999999,141.33413546213262L93.375,140.92239304937175L93.4875,141.30237654382339L93.6225,141.74030463020617L93.9825,142.1130921529967L94.3875,141.8860323560578L94.41000000000001,141.85916404718222L94.5675,142.12437499837506L94.63499999999999,142.33478143181264L95.175,142.68727558274574L95.2425,142.68980663271446L95.4,142.5058778281114L95.4675,142.22519182891241L95.49000000000001,142.15558237868916L95.535,141.98840207877777L95.5575,141.8984382849316L96.11999999999999,142.17335843849452L96.3225,142.2573237129545L96.8625,141.53315591664102L97.0425,141.10705452671255L97.35749999999999,140.96907213634594L97.38000000000001,140.89861639324616L97.76249999999999,140.73481851409167L98.41499999999999,140.65926207059778L98.46,140.65305120321597L98.685,140.53540381534393L99.0675,141.28710566407537L99.18,142.03594783810453L99.675,142.14468412320412L99.855,141.85105526876805L100.1025,141.80714463650605L100.14750000000001,141.9130207307701L100.30499999999999,142.0587267880179L100.44,141.1390316012227L100.5975,141.06075749731392L100.7325,141.21816097062623L100.80000000000001,141.22021088815805L101.1825,141.3197125066344L101.45249999999999,141.275660169265L101.52,141.28415212162818L101.6775,141.13120806095088L102.03750000000001,141.10513289696235L102.0825,141.14890170848116L102.2175,140.95112304343226L102.3075,140.73316742054698L102.66749999999999,141.2559470558487L103.05,141.46210395242716L103.5,142.1863913791137L103.905,142.17960336149264L103.95,142.29957477057295L103.995,142.47495727025077L104.0625,142.52983524967775L104.13,142.59490036509172L104.5125,142.5283736479782L104.76,142.3719727571312L105.075,142.48723028354863L105.75,142.08191344888817L105.79499999999999,141.97726739099707L106.335,142.76086273184075L106.425,142.95720315212392L106.47,143.03641488691784L106.60499999999999,143.02837400758642L106.6725,143.26818979059288L106.7175,143.5130033350466L106.92,143.5900005453712L107.0775,143.64689691189244L107.37,144.03579412692764L107.55,143.99067396001402L107.84249999999999,143.56799540167873L107.8875,143.2820731118072L107.955,143.171525091812L108.315,143.05488896621358L108.42750000000001,142.98176860960177L108.4725,142.99125397693234L108.6975,142.54267634446092L108.7875,142.3095140824397L109.44,142.65107274669498L109.5525,142.85357657244663L109.71,143.0207444697867L110.69999999999999,143.17984022320795L110.88000000000001,143.39328556629897L111.0375,143.71197239978835L111.12750000000001,143.75968929781737L111.375,143.17733755501638L111.50999999999999,143.2919208534112L111.645,143.48727904523724L112.14,143.34416024346342L112.3875,143.17261622623118L112.5,142.8811479068331L112.7025,142.40835743684778L112.725,141.95599008921312L112.99499999999999,142.01001998180263L113.24249999999999,142.10622829831124L113.31,142.3306128420621L113.535,142.53703537612296L114.5925,142.67278051989757L114.705,142.588938462441L114.7275,142.37007278265833L114.9525,142.50514342027273L116.595,142.90580080928822L116.8425,142.66787790248253L116.86500000000001,142.65036196106345L116.91,142.43884417569828L116.955,142.2576033740612L117.02250000000001,142.16968028561507L117.045,142.2399538963014L117.6075,142.31164819055644L117.72,142.56606158050207L117.78750000000001,142.88824260889874L117.9675,143.21952058072526L118.215,143.1961483033239L118.4175,143.45143262972863L118.485,143.57326061982164L118.50750000000001,143.77552961980248L118.845,143.61675266628436L119.205,143.43214459541406L119.34,143.52048708194275L119.43,143.755933947526L119.6325,143.6364704890027L119.6775,143.4829656674251L119.88,143.18207416100023L119.97000000000001,142.96727900403368L120.2175,143.12875202912653L120.80250000000001,142.94757520925143L121.005,143.1358502533304L121.3425,143.6744381403685L121.5,143.89047784899236L121.635,143.81202036913967L121.725,143.43675475980874L121.7475,143.1080631196461L122.175,143.22303640325646L122.24249999999999,143.20886742361256L123.0525,142.97765228721232L123.1875,143.17573464854203L123.525,143.8788650529204L123.57,144.25379569709023L123.9525,144.24830414879176L123.975,144.12976214902315L124.4025,144.30712324947135L124.425,144.27411173127086L124.4925,144.23056578045296L124.695,143.85661927901822L124.9425,143.24464634682602L125.505,143.81769655322552L125.5725,143.98107460841857L125.82000000000001,144.25897882206428L125.8875,144.45480941031278L125.93249999999999,144.54286604897527L125.9775,144.8201378451367L126.2475,145.18565245866256L126.63,144.8638702615071L127.1025,144.45604441467717L127.26,144.27964837891136L127.44,144.47587567294994L127.53,144.5444099052273L127.6875,144.2740936921154L127.71,144.214331069357L127.7325,144.07458756691213L127.9575,143.85011970396454L128.54250000000002,143.39272950527453L128.655,143.3566583341601L129.015,143.7537422346814L129.2625,143.75283390488667L129.35250000000002,143.95228037162488L129.375,144.0640352383684L129.555,143.90483786754396L129.69,143.83756757632443L129.7575,143.73133730206203L129.96,143.30731389510626L130.05,142.53510585777752L130.2075,142.09193932624342L130.23,141.9636551078857L130.365,142.24829602261588L130.5,142.3621422411215L130.545,142.31153373884442L130.6125,142.3047750570413L131.4,142.2320667214018L131.67000000000002,142.13221069813693L132.0975,142.78181587442316L132.1425,143.11220927706097L132.61499999999998,143.0546648999298L133.065,142.52939882875935L133.605,142.28642885487156L133.67249999999999,141.77452633341687L133.965,140.77488563990914L134.145,140.48140999001063L134.3475,140.55602123929137L134.415,140.81700334107717L134.46,140.80184926880898L134.4825,140.70465271647862L135.4725,141.11253946806636L135.6075,141.37676670820906L135.67499999999998,141.6570485194805L135.8325,142.15000480574076L136.125,141.97205874221558L136.17,141.66229357856724L136.1925,141.40362591666914L136.35,141.16014438344797L136.755,141.68595428550503L137.27249999999998,142.17504024476372L137.38500000000002,142.76074283105459L137.83499999999998,142.90134225755338L137.88000000000002,143.06779390058554L138.015,143.3707950322726L138.6,144.00456581168763L138.7125,144.4650193750066L139.095,145.44024488325118L139.5,145.32527744171136L139.68,144.9487062140133L140.1975,144.55592709643605L140.2875,144.0841954302566L140.3775,143.57172325164743L140.4,143.42064352578313L140.985,143.74912015445867L141.5025,143.7142973731825L142.155,144.09113208795807L142.4025,144.1017248730574L142.76250000000002,144.14530265136824L143.07750000000001,143.815142685995L143.1,143.56753511517772L143.54999999999998,143.3848871466887L144.08999999999997,143.03052543465526L144.45000000000002,142.46606665967434L144.8775,142.2833971149833L144.94500000000002,142.43793088796397L145.0575,142.70385330877315L145.89,143.51921431598026L146.0475,144.154224874836L146.1375,144.71753996348087L146.27249999999998,144.6446712199989L146.4075,144.2723609914866L146.51999999999998,144.5054540461592L146.5875,144.64027030624698L146.63250000000002,144.53328125491387L147.1725,144.78171815960403L147.3525,145.0267090111303L147.735,144.5538802847858L147.8475,144.4315377894399L147.89249999999998,143.8559874985629L148.1625,143.08985300227073L148.2075,142.86902152715567L148.3425,142.71649697155814L148.6125,143.15254592933888L148.725,143.66089333318834L148.95,143.85432386729997L149.175,144.07762783170062L149.80499999999998,144.44550827384185L149.85000000000002,144.61363047305852L149.94,144.37163602080415L150.2775,144.52067966520664L151.20000000000002,144.23532078619718L151.2675,143.8025339521323L151.67249999999999,143.58914634847764L152.07750000000001,144.03933844525102L152.46,144.816196001918L152.52749999999997,145.14045098464743L152.64000000000001,145.24946385845186L152.7525,145.43661704992044L153.1575,145.17430072626354L153.18,145.13176014185476L153.5625,144.90085109965338L153.63,144.6134172453265L153.7875,144.60827958824925L154.39499999999998,144.99289043889053L154.44,145.33558851169897L154.5975,145.05347397141065L155.0025,145.3378994119908L155.20499999999998,145.46801706072165L155.4075,145.9889069472739L155.6325,146.2061752721659L155.88,146.52454769482168L155.97,146.62340001585056L155.9925,146.67515204939417L156.42000000000002,145.81530406828637L156.5325,145.2259236142391L156.5775,145.08802441946779L156.66750000000002,145.12972698326178L156.86999999999998,145.08985297112827L157.275,144.38717769123625L157.725,144.34941997848463L157.8375,143.94287368887186L158.04000000000002,143.54616728961588L158.17499999999998,143.56679730935974L158.1975,143.73425269916106L158.28750000000002,143.71704748945098L158.35500000000002,143.75601492132745L158.85000000000002,144.2477219887933L159.255,143.94613155057203L159.345,143.49454339144728L159.4575,143.1124104487783L159.8175,143.40313501524247L159.86249999999998,143.56125745396207L160.0875,143.79277406863594L160.2225,143.72028722404772L160.2675,143.79124646607627L160.4025,144.03677533004833L160.4475,144.25491190712137L160.4925,144.49303949729884L160.76250000000002,144.76376205398407L160.8075,145.11142198868856L160.8525,145.33155591862376L161.37,145.1155963117499L161.57250000000002,144.95512000965778L161.64000000000001,144.90096328803543L162,144.3342745471913L162.2475,144.1940317334085L162.2925,144.10100048271892L162.4275,143.9843974122686L162.72,143.77262022550596L162.83249999999998,143.3058248229166L162.99,142.87372047110432L163.125,142.52825464251055L163.4175,142.61375663742888L164.00250000000003,142.62664214411643L164.51999999999998,143.2690943696454L164.61,143.7626954844605L164.6325,143.94586362824896L164.79,144.1408625625732L165.1725,143.92953818141396L165.42000000000002,143.20352067410334L165.66750000000002,142.84938326195498L165.825,143.08745629816633L165.96,143.29661028720562L166.5,143.04479782862046L167.73749999999998,143.62997424453053L167.82750000000001,144.24481773286792L168.12,144.33283395713406L168.4575,144.37644868182633L168.63750000000002,144.05028949432074L168.66,143.88368204187861L168.75,143.70887549490624L168.975,143.86512100560003L169.20000000000002,144.26818313914066L169.2225,144.3967184467168L169.245,144.59898902037048L169.42499999999998,144.62893174722768L169.875,144.40243389984934L170.415,144.35119117169154L170.57250000000002,144.33423804959804L170.64000000000001,144.43237278295257L170.865,144.3836543248059L171.06750000000002,144.73424788828456L171.13500000000002,144.82714661667214L171.36,144.23538917328594L171.4725,143.65797461286581L172.2825,143.4475059263829L172.485,143.7818593434248L172.53,143.91368564675773L172.62,144.06948018894906L172.755,144.26799221928712L172.8225,144.24638926245228L172.98000000000002,144.28590093408496L173.16,144.52016482167144L173.2275,144.44685076125072L173.4075,144.19831756222794L173.49749999999997,143.7934614308789L173.5875,143.79218200175657L174.10500000000002,144.38409461972333L174.195,144.60688709654738L174.35250000000002,145.17109239561356L174.4425,145.7347164896904L174.69,146.27862929191863L174.96,146.53990459573265L175.32,145.7975039092619L175.8825,145.225764732038L176.22,144.79108057447766L176.53500000000003,144.87693963465202L176.715,145.54429969797786L176.895,145.88746795819355L177.03,145.9102644389837L177.0525,145.82500755782752L177.63750000000002,145.6681550224373L177.95250000000001,145.91585031031053L178.51500000000001,145.91584429469796L178.89749999999998,145.5290313760068L179.1675,145.7829971511935L179.235,145.93122117915388L179.37,146.03863402922138L179.775,145.92819972466935L179.82000000000002,145.83192273953455L180.225,145.85147420354014L180.315,145.65065889231764L180.7875,145.79452623927034L180.87750000000003,145.7564929803416L181.035,145.65794681391338L181.3275,145.5032440595698L181.4625,145.46652080851018L181.7775,144.6833787574602L182.0475,144.86881480699168L182.385,145.0346276010199L182.565,144.92404466739035L182.5875,144.87736692351535L183.0825,144.4656012355632L183.1725,143.90785658554302L183.48749999999998,144.09020806667843L183.7575,144.42127174129672L183.78,144.67494738493713L183.9375,144.93037559823804L184.2525,145.4902906789577L184.3875,145.64684862141996L184.545,145.63150423116593L184.59,145.7344944001067L184.7925,145.46053802097808L184.8375,145.16783191636182L184.85999999999999,145.01488633081323L185.2875,145.18889013007282L185.355,145.51463574811802L185.5575,145.7776752828259L185.85,145.49931072306822L186.39000000000001,145.1338035530577L186.75,144.71587819656114L186.9975,144.27065736532452L187.4025,143.762067444008L187.6275,143.31240153325496L187.64999999999998,142.9603331725572L187.785,142.9075292492373L187.94250000000002,143.17782339718727L188.0325,142.95999842047752L188.055,142.82430806851426L188.0775,142.83665643391635L188.5725,143.3257425085166L188.595,143.55394494864092L188.685,143.47593305706624L188.73,143.64896623015187L188.9325,144.07951843174163L189.02249999999998,144.4508864845744L189.675,144.78625777359264L189.6975,145.01670122739944L189.9,145.45513132371883L189.9675,145.70267280235922L190.125,145.94416454411558L190.35,145.9840684909245L190.37249999999997,146.03294348191932L190.41750000000002,146.0286713250778L190.53,146.02756685465368L190.66500000000002,145.5469511813907L190.755,145.38121138018295L190.8,145.31028087140268L191.16,145.03714001099945L191.29500000000002,144.71424371354186L191.3175,144.33258292090346L191.4975,144.11706951267394L191.92499999999998,144.12904633089033L192.3075,143.66507657967472L192.8925,143.0092130498238L193.41000000000003,142.58864038364982L193.70250000000001,142.45839590535684L193.77,142.63629487776439L194.46749999999997,143.2510143496017L194.49,143.66374336346513L194.85,144.09846385716094L194.8725,144.449124326698L195.0975,144.88687606874612L195.165,144.89127111568158L195.20999999999998,145.2062732386635L195.4575,144.96567304182335L195.5925,144.5911282295881L195.66,144.53619957734537L195.75,144.17712898315614L196.155,144.5127241170105L196.1775,144.66204981937204L196.26749999999998,144.89885381222268L196.33499999999998,145.243889526688L196.38000000000002,145.3888888455409L196.69500000000002,145.32593904516966L196.785,145.2334853803032L197.0325,145.07629338472572L197.1,144.96659422856254L197.55,144.22852225864943L197.73,144.08084773479916L197.95499999999998,143.8773053971472L197.9775,143.87277002459007L198.225,143.17759382719942L198.7425,142.63931732969564L198.85500000000002,142.11269080398728L199.2375,142.6541053519144L200.22750000000002,142.83700611584356L200.25,142.99718650813676L200.34,143.07234073064183L200.42999999999998,143.0685405674464L200.835,143.46146906671254L200.97,143.31311347041932L201.9375,143.82420712682267L202.1175,144.4357574699679L202.29749999999999,144.7653771550471L202.32,145.1860837485998L202.70250000000001,145.4838638591732L202.995,145.30118572044157L203.085,144.78721943693023L203.3325,144.50478904563187L203.6025,144.2685343689799L203.67,143.87794160845354L203.71499999999997,143.71064763468L203.805,143.56248372317245L203.98499999999999,143.45475328875114L205.33499999999998,144.84580002772324L205.47,145.7201257579375L205.4925,146.23503991163875L205.875,146.19263293065893L206.0325,146.18893847694966L206.55,145.42994596857395L206.64,145.0737062670703L206.8875,144.88489506907746L206.95499999999998,144.78411886851464L207.3375,144.57799181398047L207.4725,144.23960325950168L207.765,144.6474635948765L208.215,145.16705754300122L208.41750000000002,145.57659930527308L208.7775,145.125537124515L208.8225,144.87390873068992L209.025,144.79772956312348L209.22750000000002,144.8330972938179L209.4075,144.71046907594445L209.8575,144.5376037213642L209.9025,144.27588948329912L209.97,144.03186200094575L210.01500000000001,143.9225349984508L210.15,144.03615307581066L210.42,144.19627402090023L210.4425,144.27842145281824L210.6,144.2359808471866L210.6675,144.11768224957L210.78,144.08852270318528L210.9375,144.2116929436135L210.9825,144.3957583791657L212.13,143.55681287169318L212.3775,143.37531511934523L212.44500000000002,143.11434515089942L212.5575,142.94069935344342L212.9175,143.0470687595765L213.00750000000002,143.3116775898789L213.03,143.3844164976668L213.07500000000002,143.44874861454122L213.3,143.69162740676688L213.39,144.15834009867376L213.48,144.51891246371343L213.6825,144.71187049706498L213.70499999999998,144.9494791978182L213.81750000000002,145.13854994894544L213.9075,145.14492358280117L213.93,145.10679553059484L214.26749999999998,145.2664042797153L214.965,144.902816896824L215.235,144.4621717523662L215.39249999999998,144.2541925146855L215.505,144.5074171325372L215.82,144.3498602490111L216.0225,144.2326922484528L216.36,144.56440788914512L216.60750000000002,145.16253606722597L216.765,145.36191491829854L216.7875,145.54537681667512L216.98999999999998,145.6950632289757L217.845,144.31411556536207L217.91250000000002,143.7522906669034L217.9575,143.48287630526545L218.025,143.0229645557103L218.04749999999999,142.87517295600358L218.1375,142.83481600476136L218.8575,143.25081293141557L219.17249999999999,143.65509060435934L219.77999999999997,143.77900621541414L219.915,143.79212919422838L220.005,144.07368714540507L220.41,144.23130498088983L220.52249999999998,144.58293809746257L220.85999999999999,144.84709872159107L220.9275,144.9955159506364L220.995,145.12002012418682L221.4675,144.77926732671432L221.715,144.8986302986075L222.00750000000002,144.35763054933113L222.03,143.92600608972293L222.25500000000002,143.88766744399607L222.3225,144.07844823597594L222.4125,144.14168105522026L222.79500000000002,144.1361654837879L222.84,143.9788397256505L222.9075,143.87608918968672L223.38,143.99917899424133L223.425,143.9370970339832L223.5375,143.5451768762624L223.785,143.28818663319475L223.965,143.4057757597796L224.055,143.50422371278003L224.4375,143.82119482864812L224.5725,144.15756931370422L224.7975,144.90556874950266L224.8425,145.40777019905772L224.97750000000002,145.32073452222986L225.09,145.49219941386755L225.2025,145.25473036342362L225.27,145.32125858052663L225.60750000000002,145.52818871886006L225.63,145.66852648268414L226.23749999999998,146.45168251123192L226.4175,146.97343067919923L226.6425,146.74110055722218L226.89000000000001,146.718143137837L227.36249999999998,146.29337826920235L227.745,145.63000451059744L227.7675,145.20638453085172L228.48749999999998,144.97741040658332L228.51000000000002,144.8644722803714L228.645,145.04475363717165L229.815,144.887991229449L229.86,144.98375769044233L230.01749999999998,145.44478124530292L230.08499999999998,145.840974713273L230.2425,145.58061302398073L230.85,144.64781553761833L231.3225,144.89614853789408L231.5475,144.7250470570523L231.9075,144.66349847228108L231.9525,144.39700352218227L231.9975,144.1081553800889L232.11,143.8051880143476L232.82999999999998,144.5527666931784L232.9425,145.1448533093196L233.19,145.02616440983195L233.2125,144.8681289577379L233.235,144.57923993014668L233.3025,144.335927183688L233.6625,144.4103103251816L234.27,143.12581921646347L234.3375,142.6217798373859L234.78750000000002,142.7952863841312L234.92249999999999,142.9249418299829L234.945,142.96144596664703L235.53,143.05735059536676L235.6875,143.39339607531127L235.84500000000003,143.31183474207498L236.5875,144.03103492028245L236.65499999999997,144.4747560979926L237.0825,143.65469564370332L237.105,143.06147005581084L237.3075,142.06873606298308L237.46499999999997,141.7271520216501L237.5325,141.59408181821715L237.69,141.61724148938293L237.75750000000002,141.48105528006488L238.185,141.7186049066951L238.2525,141.7480537440162L238.5,141.3434599009622L238.7475,141.62672004903175L238.9725,142.20806441588095L239.01749999999998,142.5073594443972L239.04,142.63601025301077L239.1075,142.68689770514482L239.64749999999998,142.74130183665778L239.76,142.70657318557596L239.7825,142.79386577442446L239.8725,142.91268411538107L240.3,143.01779330528439L240.3225,143.2655547385813L240.525,143.90384587399558L240.70499999999998,144.12696884524283L240.975,144.20500946711365L241.80749999999998,144.52202566864622L241.875,144.77355019094063L242.0775,144.79821034575417L242.1,144.67074902636762L242.235,144.28765402108198L242.28,144.22242305995889L242.48250000000002,143.9301564712634L243.27,144.24018694277459L243.3825,144.50246191809106L243.9,144.31253845367542L243.9675,144.39234268391357L244.03500000000003,144.5727129363471L244.23749999999998,145.02097362578616L244.8675,145.3056676524919L245.4075,144.72908006934563L245.6325,144.2511260797276L246.87,144.11063391504857L247.00500000000002,144.09521277668992L247.095,144.21751946562281L247.1625,144.44209066045522L247.41,144.08569607145932L247.5,143.98312777881242" style="fill: none;" fill="none"></path></g></g></g></g><g opacity="0.2"><g><g><g><path stroke="rgb(238, 51, 119)" stroke-width="2px" d="M34.065000000000005,-0.4109214544295128L34.4475,3.6574283440908744L34.56,6.051888485749657L35.167500000000004,15.46771121025094L35.3925,18.856160759925928L35.527499999999996,19.59618222713479L35.684999999999995,21.836581746737266L35.7075,22.020481944084253L36.45,32.7189643383027L36.495,33.687755882740106L36.765,37.682722429434534L36.9225,39.07236250241604L36.945,39.712476650873896L36.99,40.778302073478784L37.057500000000005,41.37487254540133L37.1025,41.60297952095675L37.372499999999995,43.798067092895565L37.597500000000004,46.09063061078396L38.565000000000005,54.11725533008581L38.745,55.488328556219784L38.925,58.77001873652145L39.1275,59.78633256753291L39.419999999999995,62.63877493143087L39.510000000000005,63.132564644018856L39.712500000000006,64.58099973201756L39.8025,66.19344196716949L39.847500000000004,66.10878598690037L39.8925,66.43370580673222L40.050000000000004,68.06758832931523L40.1625,68.85093243916835L40.2075,69.51889685789749L40.32,70.5223907232285L40.364999999999995,70.7955886125565L40.455000000000005,71.57495411237086L40.545,72.61005582412089L40.68,73.10760311285658L40.7025,73.19181702534361L41.22,76.44035212198897L41.31,76.99382098515834L42.0525,81.37692304452263L42.21,82.4736932118734L42.345,83.29151860872908L42.660000000000004,85.86590033769609L42.75,86.2814440528552L42.907500000000006,87.66268483797712L42.9525,87.73982566595079L43.1325,89.66856739918393L43.447500000000005,90.31951220830284L43.47,89.97956208388013L43.695,89.74747649828595L43.762499999999996,89.57838557163876L43.964999999999996,89.6988490422567L44.145,90.58563701311749L44.347500000000004,93.03623976310097L44.37,93.47919168074928L44.505,92.15740901231767L44.527499999999996,92.14370491107307L44.64,92.94826827446622L45.045,96.01069283485414L45.1125,96.37340945005418L45.315,97.9805468718211L45.99,98.91242575645448L46.2825,100.41877172390622L46.4175,101.04054005940756L46.485,102.09266138076784L46.53,102.51572024822237L46.62,103.15406612555188L46.755,104.04306443532309L46.8675,104.46722847223283L47.0925,104.7875065803528L47.2275,105.26184531052908L47.34,105.58035514752072L47.565,107.35149971644086L48.51,106.38491851091386L48.6,106.9246832728386L48.6225,107.09708970785142L48.645,107.2146797378858L49.050000000000004,108.9940025607745L49.3425,108.36206666628522L49.635,108.2984089056651L50.22,111.36459104220073L50.49,114.0284914970398L50.737500000000004,113.4874005317688L50.805,113.81475172440211L50.8725,113.86779985825221L51.3225,113.36362155278525L51.457499999999996,113.37975702683131L51.615,114.11801022291183L51.75,113.6491973400116L52.11,114.79791047175726L52.1775,115.01275541385016L52.425,115.1743311882019L52.4925,116.07504429419836L52.559999999999995,116.86236701409022L52.5825,116.93729750315349L53.6625,117.1108091076215L53.730000000000004,117.61498741308849L53.7975,118.12933327754338L53.82,117.93592862288158L54.315,120.89767224589983L54.585,120.3458611369133L54.81,119.92755449811618L54.9,121.24016426006952L55.4625,120.72957597176233L55.485,120.73112320899963L55.7325,121.89342992504437L55.9125,122.40832837422688L56.0025,122.0522427757581L56.0475,122.00217859943707L56.7675,123.90318057934442L56.8575,124.21163337429364L57.42,124.91872079173723L57.78,125.38046059012413L57.802499999999995,125.15986876686414L58.13999999999999,125.1266031662623L58.230000000000004,125.85181536277135L58.589999999999996,125.49130908648172L58.6125,125.23203633228937L59.1075,127.67423979441324L59.22,126.56663896640141L59.3325,127.01633241772652L59.4,127.93097065885861L59.5125,127.15801514188448L59.580000000000005,127.30500267942746L59.85,126.68964432676633L60.03,127.33484225471814L60.1875,127.34025758504868L60.345,126.7540757060051L60.5475,126.87796520193417L60.637499999999996,126.7945249080658L60.682500000000005,126.4441861907641L60.7275,126.35124143958092L60.794999999999995,125.97150521477063L60.9525,126.02941609422365L61.155,126.66234664122263L61.38,126.95234310626984L61.47,128.09718814492226L61.515,128.2387603521347L61.5825,128.12934857606888L61.695,128.94076399008432L61.7625,128.72293509046236L61.785,128.6281115512053L62.235,128.81366950273514L62.4375,130.69577308495838L62.572500000000005,130.7556732694308L62.730000000000004,131.62057888507843L62.7525,132.15658607085544L62.955,131.75529904166856L63.112500000000004,131.10103872418404L63.584999999999994,131.7144077718258L63.675000000000004,132.19692475597063L63.9,132.2656662960847L63.989999999999995,132.67026883363724L64.1925,132.76288203398386L64.485,132.9016913175583L64.55250000000001,132.70021892587343L64.6875,133.30452558398247L64.7325,133.30143110950786L65.4975,134.08300694823265L65.63250000000001,133.95712814728418L66.015,134.42384120821953L66.24,134.90790542960167L66.30749999999999,135.382465193669L66.35249999999999,135.92488236228624L66.7575,134.85154178738594L67.0725,134.39046509067217L67.11749999999999,134.39422266681987L67.5225,133.86617270112038L67.6125,134.0995844900608L67.7925,135.24918175737062L68.175,134.24579840898514L68.31,133.756650408109L68.85,134.32990180452663L69.1425,134.16832603017488L69.21000000000001,134.71858990192413L69.2325,134.52109612027803L69.2775,134.836069415013L69.32249999999999,134.76998028159142L69.4125,134.74544551968575L69.5025,134.29276811083156L69.66,133.9015381236871L69.99749999999999,135.34113185604411L70.7625,134.90458992123604L70.8525,134.67360950509706L71.01,134.76998028159142L71.21249999999999,135.22309975822765L71.4825,135.8836595416069L71.7075,135.1081621348858L71.7525,135.13921739657718L71.7975,134.8262334068616L71.91,135.05986622969309L71.9775,134.6365863283475L72.1575,135.04229403535524L72.2475,135.1008680164814L72.69749999999999,133.3619943956534L72.81,134.7368251979351L72.8325,134.92172004779178L72.87750000000001,134.38051856557527L72.945,134.12677165865898L73.03500000000001,133.6735416650772L73.0575,134.00675025582314L73.215,134.93564518292743L73.2825,135.46325308084488L73.395,136.21399469176927L73.82249999999999,134.89950614174205L74.0475,135.60184133052826L74.1825,136.45602680246034L74.3175,136.107456356287L74.4075,135.72539927562076L74.67750000000001,136.14680038889247L74.7,136.30782357851663L75.2625,136.50211236874262L75.465,136.5267576475938L76.2525,137.17140299081802L76.27499999999999,137.2779413263003L76.32000000000001,136.82018013795215L77.31,139.06488981842992L77.49,138.53695036967594L77.64750000000001,138.72759210069972L77.6925,138.80860102176663L77.7375,138.7258238295714L77.85,138.17279703418413L78.4125,137.6903905669848L78.43499999999999,138.10416601101556L78.66,137.76941018303233L78.705,138.19346370299655L78.8175,137.4097880423069L79.1325,136.76116408904392L79.2675,137.6447470684846L79.47,137.79571321606636L79.80749999999999,138.98200210928914L79.8975,138.63785234093663L79.9425,138.70825163523355L80.50500000000001,139.7282125254472L80.775,139.06356361508367L81,138.59707158803937L81.13499999999999,138.93414827187854L81.5175,138.20064730445543L81.6525,137.78521410624185L81.675,137.9851392606894L81.99,137.58772032459575L82.125,137.97928186257678L82.2375,138.9002195696036L82.755,138.15135674675304L82.9125,138.20407332976657L83.025,138.92961707711217L83.3175,137.71492532889047L83.475,138.5908826390902L83.8125,140.83791317542392L84.0825,139.33554581801096L84.14999999999999,139.1808220942815L84.465,139.83143535256383L85.2525,139.2654780745506L85.275,139.16413403550783L85.2975,138.86673293511072L85.7025,140.61643721659976L86.03999999999999,139.2213818132877L87.12,140.30920010805127L87.3225,140.8761520385742L87.52499999999999,140.96047646800673L87.66,141.23367435733473L88.13250000000001,141.94308263063428L88.1775,142.2333001295725L88.2,142.3997386495272L89.25750000000001,141.64932858943936L89.4375,142.19141420722005L89.955,141.81654072801268L90.1575,141.23069039980567L90.2475,141.1114426155885L90.3375,141.1531075040499L90.6075,142.41896859804785L90.675,142.0509471694628L90.855,142.1826833685239L90.9225,142.3696780403455L91.4625,140.32102542122203L91.55250000000001,141.0306547284126L91.5975,141.42166368166602L92.2275,143.03653728961942L92.745,142.18047302961347L93.0825,141.2582091192404L93.26249999999999,140.70993455251056L93.375,140.30477943023044L93.4875,141.87235178550083L93.6225,142.39719675978023L93.9825,142.67227343718207L94.3875,141.5454426606496L94.41000000000001,141.81886158386862L94.5675,142.52219142516452L94.63499999999999,142.6503910819689L95.175,143.21601680914557L95.2425,142.69360320766765L95.4,142.22998462120688L95.4675,141.80416283011434L95.49000000000001,142.05116820335385L95.535,141.73763162891066L95.5575,141.76349259416259L96.11999999999999,142.5857386688391L96.3225,142.38327162464458L96.8625,140.44690422217047L97.0425,140.4679024418195L97.35749999999999,140.76209855079648L97.38000000000001,140.79293277859685L97.76249999999999,140.48912169535953L98.41499999999999,140.54592740535733L98.46,140.64373490214345L98.685,140.35893273353574L99.0675,142.41465843717253L99.18,143.15921109914777L99.675,142.3077885508537L99.855,141.41061198711392L100.1025,141.74127868811286L100.14750000000001,142.07183487216628L100.30499999999999,142.2772858738899L100.44,139.75948882102963L100.5975,140.943346341451L100.7325,141.45426618059474L100.80000000000001,141.22328576445577L101.1825,141.46896493434903L101.45249999999999,141.20958166321117L101.52,141.29689005017278L101.6775,140.90179196993506L102.03750000000001,141.06602015097934L102.0825,141.21455492575961L102.2175,140.65445504585898L102.3075,140.40623398621875L102.66749999999999,142.04011650880176L103.05,141.7713392972946L103.5,143.2728225191434L103.905,142.16942133506137L103.95,142.4795318841934L103.995,142.7380310197671L104.0625,142.61215221881864L104.13,142.69249803821242L104.5125,142.42858357230818L104.76,142.13737142086026L105.075,142.66011657317478L105.75,141.47393819689748L105.79499999999999,141.82029830416042L106.335,143.9362557431062L106.425,143.25171378254888L106.47,143.155232489109L106.60499999999999,143.01631268858907L106.6725,143.6279134651025L106.7175,143.88022365172702L106.92,143.70549636085826L107.0775,143.73224146167433L107.37,144.61913994948065L107.55,143.92299370964366L107.84249999999999,142.9339775641759L107.8875,142.85318967700002L107.955,143.00570306181905L108.315,142.87993477781612L108.42750000000001,142.87208807468411L108.4725,143.005482027928L108.6975,141.86980989575383L108.7875,141.95977068940795L109.44,143.16341074307758L109.5525,143.1573323110739L109.71,143.27149631579715L110.69999999999999,143.41848385334012L110.88000000000001,143.71345358093578L111.0375,144.19000265002248L111.12750000000001,143.8312646448612L111.375,142.30380994081494L111.50999999999999,143.46379580100376L111.645,143.78031633297599L112.14,143.1294820408026L112.3875,142.91530020038283L112.5,142.44394542773563L112.7025,141.69917173186934L112.725,141.27743906776107L112.99499999999999,142.09106482068694L113.24249999999999,142.2505407730738L113.31,142.6671896576881L113.535,142.84666917721427L114.5925,142.87639823555944L114.705,142.4631753762563L114.7275,142.04177426298457L114.9525,142.70774937669432L116.595,143.50678689281142L116.8425,142.31099354227382L116.86500000000001,142.6240880489349L116.91,142.12156749765074L116.955,141.9857421716054L117.02250000000001,142.03779565294582L117.045,142.34536431233084L117.6075,142.4191896319389L117.72,142.9476816654205L117.78750000000001,143.37151415149367L117.9675,143.71643753846485L118.215,143.16108988722164L118.4175,143.83435911933577L118.485,143.75600260496137L118.50750000000001,144.07893311977384L118.845,143.37858723600704L119.205,143.155232489109L119.34,143.65300081173575L119.43,144.10910424590108L119.6325,143.457275301218L119.6775,143.25270843505857L119.88,142.73073690136272L119.97000000000001,142.6450862685839L120.2175,143.37096156676608L120.80250000000001,142.67580997943875L121.005,143.41826281944907L121.3425,144.48231997092563L121.5,144.21453741192815L121.635,143.69433414936063L121.725,142.87385634581244L121.7475,142.6150256594022L122.175,143.39549632867175L122.24249999999999,143.18761395414668L123.0525,142.63082958261168L123.1875,143.47285819053647L123.525,144.93356065948802L123.57,144.81619166334468L123.9525,144.2400668263435L123.975,143.95194914937017L124.4025,144.57316490014392L124.425,144.22459445397055L124.4925,144.16524685422576L124.695,143.29569952686626L124.9425,142.3266869485378L125.505,144.67727186282474L125.5725,144.22614169120786L125.82000000000001,144.67583514253295L125.8875,144.7485552926858L125.93249999999999,144.6749510069688L125.9775,145.2360455393791L126.2475,145.73392437895137L126.63,144.38119696577388L127.1025,143.84430564443267L127.26,144.01505432526267L127.44,144.77021661400792L127.53,144.647211253643L127.6875,143.8686193724473L127.71,144.12468713521955L127.7325,143.86497231324512L127.9575,143.51341790954268L128.54250000000002,142.70664420723912L128.655,143.30255157748854L129.015,144.34936808546382L129.2625,143.751471410195L129.35250000000002,144.25145007173217L129.375,144.23166753848392L129.555,143.66604181130725L129.69,143.7366621394952L129.7575,143.57199189066884L129.96,142.67127878467238L130.05,141.3767938017845L130.2075,141.42718952894208L130.23,141.77122878034908L130.365,142.67525739471114L130.5,142.53291156888005L130.545,142.23562098542845L130.6125,142.2946370343367L131.4,142.12300421794254L131.67000000000002,141.98242666323978L132.0975,143.75622363885242L132.1425,143.60779938101766L132.61499999999998,142.96834833423293L133.065,141.7414997220039L133.605,141.92197389403975L133.67249999999999,141.00667255123454L133.965,139.2754245996475L134.145,140.04119651516277L134.3475,140.66793811321256L134.415,141.20847649375594L134.46,140.7791181604067L134.4825,140.5588578879833L135.4725,141.72436959544814L135.6075,141.77310756842292L135.67499999999998,142.07747123638785L135.8325,142.8894392351309L136.125,141.70513964692748L136.17,141.1976458330949L136.1925,141.01562442382175L136.35,140.79492208361623L136.755,142.47466913859046L137.27249999999998,142.90866918365157L137.38500000000002,143.63929671049115L137.83499999999998,143.11224139730132L137.88000000000002,143.31747136513388L138.015,143.82529672980306L138.6,144.95522198081014L138.7125,145.1556997199853L139.095,146.9030831456184L139.5,145.15282627940175L139.68,144.3838493724664L140.1975,143.96675842007L140.2875,143.37659793098766L140.3775,142.80301498373348L140.4,143.1940239369869L140.985,144.24183509747184L141.5025,143.6620632012685L142.155,144.65638416012126L142.4025,144.1176140507062L142.76250000000002,144.2106693188349L143.07750000000001,143.31990273793537L143.1,143.19612375895179L143.54999999999998,143.11091519395507L144.08999999999997,142.4989828666051L144.45000000000002,141.61937849720317L144.8775,142.0093927979469L144.94500000000002,142.6697315474351L145.0575,143.10273693998653L145.89,144.7422558267911L146.0475,145.10674071311948L146.1375,145.56251259644824L146.27249999999998,144.53536810477573L146.4075,143.71389564871785L146.51999999999998,144.85509362816808L146.5875,144.84249469637868L146.63250000000002,144.37279767791426L147.1725,145.15437351663905L147.3525,145.3941952884197L147.735,143.84463719526923L147.8475,144.24802404642102L147.89249999999998,142.99266206224758L148.1625,141.94065125783283L148.2075,142.537774314483L148.3425,142.48771013816196L148.6125,143.80661936601L148.725,144.4234144389629L148.95,144.14446966846782L149.175,144.41258377830184L149.80499999999998,144.99732893705365L149.85000000000002,144.8658137718836L149.94,144.00864434242246L150.2775,144.7442451318105L151.20000000000002,143.80728246768314L151.2675,143.15335370103514L151.67249999999999,143.26906494299567L152.07750000000001,144.71462659041083L152.46,145.98148233691848L152.52749999999997,145.6268334587415L152.64000000000001,145.41298316915828L152.7525,145.71734683712322L153.1575,144.78082624077794L153.18,145.0679492652416L153.5625,144.55448753635085L153.63,144.18226646383602L153.7875,144.60057310263312L154.39499999999998,145.56980671485263L154.44,145.8496356209119L154.5975,144.6303021609783L155.0025,145.7645375728607L155.20499999999998,145.6631935338179L155.4075,146.77024177710211L155.6325,146.5320777595043L155.88,147.00210632880527L155.97,146.7716784973939L155.9925,146.7527800997098L156.42000000000002,144.52553209662435L156.5325,144.34185293316838L156.5775,144.88117562731105L156.66750000000002,145.19228082895276L156.86999999999998,145.0300419529279L157.275,143.3331647713979L157.725,144.29278340935704L157.8375,143.33305425445235L158.04000000000002,142.95110769073165L158.17499999999998,143.59774233897525L158.1975,143.98543578386304L158.28750000000002,143.69123967488605L158.35500000000002,143.814466069142L158.85000000000002,144.98528258999187L159.255,143.49374589323995L159.345,142.81716115276015L159.4575,142.53921103477475L159.8175,143.8392218649387L159.86249999999998,143.79844111204144L160.0875,144.14004899064696L160.2225,143.61155695716536L160.2675,143.89768532911933L160.4025,144.40506862600643L160.4475,144.58211677273113L160.4925,144.85023088256514L160.76250000000002,145.16984588901198L160.8075,145.63291189074513L160.8525,145.66175681352613L161.37,144.791656901439L161.57250000000002,144.7144055565198L161.64000000000001,144.81972820560134L162,143.48424143592513L162.2475,143.9836675127347L162.2925,143.96145360668498L162.4275,143.80949280659354L162.72,143.45495444536206L162.83249999999998,142.60563171903289L162.99,142.22556394338605L163.125,142.01005589962003L163.4175,142.74200962980586L164.00250000000003,142.64597040414807L164.51999999999998,144.23277270793912L164.61,144.50309715668357L164.6325,144.2206158439318L164.79,144.4333609640598L165.1725,143.61255160967505L165.42000000000002,142.1144944131374L165.66750000000002,142.31817714373267L165.825,143.4445658524831L165.96,143.61034127076465L166.5,142.6670791407426L167.73749999999998,144.50773886839545L167.82750000000001,145.16708296537396L168.12,144.4648582935333L168.4575,144.44187076886493L168.63750000000002,143.56105071306226L168.66,143.6337708632151L168.75,143.44666567444798L168.975,144.09948927164075L169.20000000000002,144.87277633945143L169.2225,144.58952140808103L169.245,144.9023948808511L169.42499999999998,144.67384583751357L169.875,144.06268712878224L170.415,144.27432707945502L170.57250000000002,144.30880836645758L170.64000000000001,144.57957488298413L170.865,144.31057663758594L171.06750000000002,145.2601382335027L171.13500000000002,144.96649470925328L171.36,143.34775300820667L171.4725,142.79185277223584L172.2825,143.13180289665854L172.485,144.28338946898776L172.53,144.11142510175702L172.62,144.303172002236L172.755,144.565760264794L172.8225,144.21398482720053L172.98000000000002,144.345168441534L173.16,144.87156065305072L173.2275,144.33687967061994L173.4075,143.8255177636941L173.49749999999997,143.1861772338549L173.5875,143.79026285807288L174.10500000000002,145.27196354667342L174.195,144.94107581178343L174.35250000000002,146.01740034421283L174.4425,146.58015263080594L174.69,147.09449849526084L174.96,146.9318175514539L175.32,144.683902879556L175.8825,144.36815596620238L176.22,144.13905433813727L176.53500000000003,145.00572822491324L176.715,146.54533979296681L176.895,146.40222034851706L177.03,145.94445916016895L177.0525,145.69712223609287L177.63750000000002,145.43287621935207L177.95250000000001,146.28739324212071L178.51500000000001,145.91583527127898L178.89749999999998,144.94881199796993L179.1675,146.16394581397373L179.235,146.15355722109473L179.37,146.19975330432254L179.775,145.7625482678413L179.82000000000002,145.68750726183254L180.225,145.88080139954883L180.315,145.34943592548368L180.7875,146.01032725969947L180.87750000000003,145.6994430919488L181.035,145.51012756427127L181.3275,145.27118992805478L181.4625,145.41143593192098L181.7775,143.5086656808853L182.0475,145.14696888128913L182.385,145.2833467920621L182.565,144.75817026694614L182.5875,144.807350307703L183.0825,143.84795270363486L183.1725,143.07123961051303L183.48749999999998,144.36373528838155L183.7575,144.91786725322402L183.78,145.0554608503977L183.9375,145.31351791818935L184.2525,146.33016330003736L184.3875,145.88168553511298L184.545,145.60848764578498L184.59,145.88897965351737L184.7925,145.0496034522851L184.8375,144.72877275943753L184.85999999999999,144.78546795248982L185.2875,145.4498958289623L185.355,146.00325417518613L185.5575,146.1722345848878L185.85,145.08176388343173L186.39000000000001,144.58554279804227L186.75,144.08899016181624L186.9975,143.6028261184692L187.4025,142.9991825620333L187.6275,142.63790266712505L187.64999999999998,142.43223063151038L187.785,142.82832336425778L187.94250000000002,143.583264619112L188.0325,142.63326095541316L188.055,142.62077254056928L188.0775,142.8551789820194L188.5725,144.0593716204166L188.595,143.89624860882756L188.685,143.35891521970427L188.73,143.9085159897804L188.9325,144.7253467341264L189.02249999999998,145.00793856382367L189.675,145.28931470712024L189.6975,145.36236640810964L189.9,146.11277646819747L189.9675,146.07398502031958L190.125,146.30640215675032L190.35,146.04392441113788L190.37249999999997,146.10625596841174L190.41750000000002,146.02226308981574L190.53,146.02591014901793L190.66500000000002,144.82602767149604L190.755,145.1326016783714L190.8,145.20388510823247L191.16,144.62742872039473L191.29500000000002,144.22989926735556L191.3175,143.76009173194564L191.4975,143.79379940032956L191.92499999999998,144.14701155821479L192.3075,142.9691219528516L192.8925,142.02541775504744L193.41000000000003,141.95778138438857L193.70250000000001,142.26302918791768L193.77,142.90314333637554L194.46749999999997,144.17309355735776L194.49,144.28283688426015L194.85,144.7505445977052L194.8725,144.97511503100392L195.0975,145.5435036818186L195.165,144.89786368608472L195.20999999999998,145.67877642313636L195.4575,144.60477274656293L195.5925,144.02931101123488L195.66,144.4538065989812L195.75,143.63852309187251L196.155,145.01611681779224L196.1775,144.88603837291396L196.26749999999998,145.254059801499L196.33499999999998,145.7614430983861L196.38000000000002,145.60638782382009L196.69500000000002,145.23151434461272L196.785,145.0948048830032L197.0325,144.8405053913593L197.1,144.80204549431798L197.55,143.12141430377957L197.73,143.85933594902355L197.95499999999998,143.57199189066884L197.9775,143.8659669657548L198.225,142.13482953111327L198.7425,141.83190258344013L198.85500000000002,141.3227510154247L199.2375,143.4662271738052L200.22750000000002,143.11135726173717L200.25,143.23745709657666L200.34,143.1850720643997L200.42999999999998,143.06284032265341L200.835,144.05086181561148L200.97,143.0905800759792L201.9375,144.59084761142728L202.1175,145.35308298468587L202.29749999999999,145.25980668266612L202.32,145.8171436389287L202.70250000000001,145.9305340250333L202.995,145.02716851234433L203.085,144.0162700116634L203.3325,144.08114345868427L203.6025,143.91415235400197L203.67,143.29205246766406L203.71499999999997,143.45970667401946L203.805,143.34023785591123L203.98499999999999,143.29315763711926L205.33499999999998,146.93237013618148L205.47,147.03161435325939L205.4925,147.00741114219028L205.875,146.12902245918906L206.0325,146.1833967963854L206.55,144.2914572060108L206.64,144.53934671481449L206.8875,144.60167827208835L206.95499999999998,144.6329545676708L207.3375,144.268801232179L207.4725,143.7320204277833L207.765,145.2592540979385L208.215,145.94644846518833L208.41750000000002,146.19091194868085L208.7775,144.44894385337827L208.8225,144.4964661399523L209.025,144.6834608117739L209.22750000000002,144.8861488898595L209.4075,144.52652674913404L209.8575,144.27830568949378L209.9025,143.8833181262016L209.97,143.6658207774162L210.01500000000001,143.75854449470836L210.15,144.20658019185063L210.42,144.43645543853438L210.4425,144.40164260069525L210.6,144.17231993873912L210.6675,143.94023435314494L210.78,144.04478338360784L210.9375,144.39644830425578L210.9825,144.6718565324942L212.13,142.29839461048442L212.3775,143.1030684908231L212.44500000000002,142.72289019823071L212.5575,142.68023065725959L212.9175,143.2066228687763L213.00750000000002,143.70859083533284L213.03,143.4935248593489L213.07500000000002,143.54524678985274L213.3,144.05594559510547L213.39,144.8584091365337L213.48,145.05977101127303L213.6825,145.0013075470924L213.70499999999998,145.3058922489484L213.81750000000002,145.4221560756365L213.9075,145.15448403358457L213.93,145.0496034522851L214.26749999999998,145.50581740339595L214.965,144.35743582248685L215.235,143.80120403567946L215.39249999999998,143.94222365816432L215.505,144.8872540593147L215.82,144.1135249237219L216.0225,144.05694024761516L216.36,145.06198135018346L216.60750000000002,146.05972833434737L216.765,145.6609831949075L216.7875,145.82056966423986L216.98999999999998,145.9195928474267L217.845,142.24269406994182L217.91250000000002,142.90955331921575L217.9575,143.07875476280844L218.025,142.333096931378L218.04749999999999,142.6534855564435L218.1375,142.774280577898L218.8575,143.87480832139647L219.17249999999999,144.2615071137746L219.77999999999997,143.96487963199613L219.915,143.81181366244948L220.005,144.49602407217023L220.41,144.46773173411685L220.52249999999998,145.11038777232167L220.85999999999999,145.24333965778348L220.9275,145.21814179420468L220.995,145.30677638451255L221.4675,144.26813813050586L221.715,145.07767475644744L222.00750000000002,143.54613092541692L222.03,143.2785694003105L222.25500000000002,143.830159475406L222.3225,144.36461942394573L222.4125,144.23653028408683L222.79500000000002,144.12789212663967L222.84,143.74285108844435L222.9075,143.72196338574088L223.38,144.1838137010733L223.425,143.8439740935961L223.5375,142.95729663968083L223.785,142.90270126859343L223.965,143.58215944965679L224.055,143.65189564228055L224.4375,144.2966515024503L224.5725,144.66213104128835L224.7975,146.02756790320075L224.8425,146.16107237339017L224.97750000000002,145.19018100698787L225.09,145.7493967513243L225.2025,144.89852678775785L225.27,145.4210509061813L225.60750000000002,145.83858392635977L225.63,145.87903312842047L226.23749999999998,147.6264165540536L226.4175,147.75605293114978L226.6425,146.39260537425673L226.89000000000001,146.68370700875914L227.36249999999998,145.65623096625006L227.745,144.63494387269017L227.7675,144.5709545612335L228.48749999999998,144.63394922018048L228.51000000000002,144.6950650910536L228.645,145.31517567237216L229.815,144.65284761786458L229.86,145.1274073819319L230.01749999999998,146.13631657759345L230.08499999999998,146.43526491522786L230.2425,145.19007049004233L230.85,143.2486193080743L231.3225,145.2686480383078L231.5475,144.46839483578998L231.9075,144.57117559512454L231.9525,143.9972610970338L231.9975,143.67488316694892L232.11,143.35073696573573L232.82999999999998,145.67413471142447L232.9425,146.0329832335313L233.19,144.84813106060025L233.2125,144.63107577959693L233.235,144.14590638875958L233.3025,143.97095806399977L233.6625,144.52188503742215L234.27,141.19908255338666L234.3375,141.86572076876956L234.78750000000002,143.05554620424903L234.92249999999999,143.1194249987602L234.945,143.01620217164356L235.53,143.20120753844577L235.6875,143.8974642952283L235.84500000000003,143.18949274222052L236.5875,145.10983518759406L236.65499999999997,145.14033786455786L237.0825,142.42460496226943L237.105,142.17163167397177L237.3075,140.57963507374126L237.46499999999997,141.21477595965064L237.5325,141.39447651306784L237.69,141.65198099613187L237.75750000000002,141.27677596608794L238.185,142.0749293466409L238.2525,141.79222699999806L238.5,140.73656913638112L238.7475,142.05161027113593L238.9725,143.0800809661547L239.01749999999998,142.95630198717114L239.04,142.8289864659309L239.1075,142.7632288833459L239.64749999999998,142.82290803392726L239.76,142.6544802089532L239.7825,142.92480465769765L239.8725,143.09091162681577L240.3,143.17545709013936L240.3225,143.63719688852626L240.525,144.86128257711727L240.70499999999998,144.46165330211318L240.975,144.3220703999201L241.80749999999998,144.9975499709447L241.875,145.15083697438237L242.0775,144.8352005779743L242.1,144.47955704728759L242.235,143.71301151315367L242.28,144.12457661827403L242.48250000000002,143.49175658822057L243.27,144.70523265004155L243.3825,144.89587438106534L243.9,144.02765325705207L243.9675,144.51204902927077L244.03500000000003,144.84326831499732L244.23749999999998,145.69336465994513L244.8675,145.73270869255063L245.4075,143.86419869462645L245.6325,143.53419509530065L246.87,143.89989566802976L247.00500000000002,144.07208106915152L247.095,144.40097949902213L247.1625,144.77894745270407L247.41,143.55110418796536L247.5,143.82927533984181" style="fill: none;" fill="none"></path></g></g></g></g></g></g><g transform="translate(60, 178)" clip-path="url(#clip_1)"><clipPath id="clip_1"><rect width="270" height="22"></rect></clipPath><g><g><line x1="0" y1="0" x2="0" y2="5" style="visibility: inherit;" fill="rgb(0, 0, 0)" stroke="rgb(204, 204, 204)" stroke-width="1px"></line><line x1="22.5" y1="0" x2="22.5" y2="5" style="visibility: inherit;" fill="rgb(0, 0, 0)" stroke="rgb(204, 204, 204)" stroke-width="1px"></line><line x1="45" y1="0" x2="45" y2="5" style="visibility: inherit;" fill="rgb(0, 0, 0)" stroke="rgb(204, 204, 204)" stroke-width="1px"></line><line x1="67.5" y1="0" x2="67.5" y2="5" style="visibility: inherit;" fill="rgb(0, 0, 0)" stroke="rgb(204, 204, 204)" stroke-width="1px"></line><line x1="90" y1="0" x2="90" y2="5" style="visibility: inherit;" fill="rgb(0, 0, 0)" stroke="rgb(204, 204, 204)" stroke-width="1px"></line><line x1="112.5" y1="0" x2="112.5" y2="5" style="visibility: inherit;" fill="rgb(0, 0, 0)" stroke="rgb(204, 204, 204)" stroke-width="1px"></line><line x1="135" y1="0" x2="135" y2="5" style="visibility: inherit;" fill="rgb(0, 0, 0)" stroke="rgb(204, 204, 204)" stroke-width="1px"></line><line x1="157.5" y1="0" x2="157.5" y2="5" style="visibility: inherit;" fill="rgb(0, 0, 0)" stroke="rgb(204, 204, 204)" stroke-width="1px"></line><line x1="180" y1="0" x2="180" y2="5" style="visibility: inherit;" fill="rgb(0, 0, 0)" stroke="rgb(204, 204, 204)" stroke-width="1px"></line><line x1="202.5" y1="0" x2="202.5" y2="5" style="visibility: inherit;" fill="rgb(0, 0, 0)" stroke="rgb(204, 204, 204)" stroke-width="1px"></line><line x1="225" y1="0" x2="225" y2="5" style="visibility: inherit;" fill="rgb(0, 0, 0)" stroke="rgb(204, 204, 204)" stroke-width="1px"></line><line x1="247.5" y1="0" x2="247.5" y2="5" style="visibility: inherit;" fill="rgb(0, 0, 0)" stroke="rgb(204, 204, 204)" stroke-width="1px"></line><line x1="270" y1="0" x2="270" y2="5" style="visibility: inherit;" fill="rgb(0, 0, 0)" stroke="rgb(204, 204, 204)" stroke-width="1px"></line></g><g transform="translate(0, 8)"><text x="0" y="0" dx="0em" dy="0.95em" style="text-anchor: middle; visibility: hidden; font-family: &quot;Helvetica Neue&quot;, sans-serif; font-size: 12px; font-weight: 200;" fill="rgb(50, 49, 63)" stroke="none" stroke-width="1px">-1k</text><text x="22.5" y="0" dx="0em" dy="0.95em" style="text-anchor: middle; visibility: inherit; font-family: &quot;Helvetica Neue&quot;, sans-serif; font-size: 12px; font-weight: 200;" fill="rgb(50, 49, 63)" stroke="none" stroke-width="1px">0</text><text x="45" y="0" dx="0em" dy="0.95em" style="text-anchor: middle; visibility: inherit; font-family: &quot;Helvetica Neue&quot;, sans-serif; font-size: 12px; font-weight: 200;" fill="rgb(50, 49, 63)" stroke="none" stroke-width="1px">1k</text><text x="67.5" y="0" dx="0em" dy="0.95em" style="text-anchor: middle; visibility: inherit; font-family: &quot;Helvetica Neue&quot;, sans-serif; font-size: 12px; font-weight: 200;" fill="rgb(50, 49, 63)" stroke="none" stroke-width="1px">2k</text><text x="90" y="0" dx="0em" dy="0.95em" style="text-anchor: middle; visibility: inherit; font-family: &quot;Helvetica Neue&quot;, sans-serif; font-size: 12px; font-weight: 200;" fill="rgb(50, 49, 63)" stroke="none" stroke-width="1px">3k</text><text x="112.5" y="0" dx="0em" dy="0.95em" style="text-anchor: middle; visibility: inherit; font-family: &quot;Helvetica Neue&quot;, sans-serif; font-size: 12px; font-weight: 200;" fill="rgb(50, 49, 63)" stroke="none" stroke-width="1px">4k</text><text x="135" y="0" dx="0em" dy="0.95em" style="text-anchor: middle; visibility: inherit; font-family: &quot;Helvetica Neue&quot;, sans-serif; font-size: 12px; font-weight: 200;" fill="rgb(50, 49, 63)" stroke="none" stroke-width="1px">5k</text><text x="157.5" y="0" dx="0em" dy="0.95em" style="text-anchor: middle; visibility: inherit; font-family: &quot;Helvetica Neue&quot;, sans-serif; font-size: 12px; font-weight: 200;" fill="rgb(50, 49, 63)" stroke="none" stroke-width="1px">6k</text><text x="180" y="0" dx="0em" dy="0.95em" style="text-anchor: middle; visibility: inherit; font-family: &quot;Helvetica Neue&quot;, sans-serif; font-size: 12px; font-weight: 200;" fill="rgb(50, 49, 63)" stroke="none" stroke-width="1px">7k</text><text x="202.5" y="0" dx="0em" dy="0.95em" style="text-anchor: middle; visibility: inherit; font-family: &quot;Helvetica Neue&quot;, sans-serif; font-size: 12px; font-weight: 200;" fill="rgb(50, 49, 63)" stroke="none" stroke-width="1px">8k</text><text x="225" y="0" dx="0em" dy="0.95em" style="text-anchor: middle; visibility: inherit; font-family: &quot;Helvetica Neue&quot;, sans-serif; font-size: 12px; font-weight: 200;" fill="rgb(50, 49, 63)" stroke="none" stroke-width="1px">9k</text><text x="247.5" y="0" dx="0em" dy="0.95em" style="text-anchor: middle; visibility: inherit; font-family: &quot;Helvetica Neue&quot;, sans-serif; font-size: 12px; font-weight: 200;" fill="rgb(50, 49, 63)" stroke="none" stroke-width="1px">10k</text><text x="270" y="0" dx="0em" dy="0.95em" style="text-anchor: middle; visibility: hidden; font-family: &quot;Helvetica Neue&quot;, sans-serif; font-size: 12px; font-weight: 200;" fill="rgb(50, 49, 63)" stroke="none" stroke-width="1px">11k</text></g><line x1="0" y1="0" x2="270" y2="0" fill="rgb(0, 0, 0)" stroke="rgb(204, 204, 204)" stroke-width="1px"></line></g></g></g></g></svg>